<mxfile host="app.diagrams.net" agent="Mozilla/5.0 (Windows NT 10.0; Win64; x64) AppleWebKit/537.36 (KHTML, like Gecko) Chrome/131.0.0.0 Safari/537.36" version="24.8.0">
  <diagram name="Page-1" id="jsSCACdP5ffNfHUh-8gk">
    <mxGraphModel dx="1434" dy="780" grid="1" gridSize="10" guides="1" tooltips="1" connect="1" arrows="1" fold="1" page="1" pageScale="1" pageWidth="827" pageHeight="1169" math="0" shadow="0">
      <root>
        <mxCell id="0" />
        <mxCell id="1" parent="0" />
        <mxCell id="6z_-niMH7R3TJKptT-WV-1" value="" style="rounded=1;whiteSpace=wrap;html=1;strokeColor=#0070F2;fillColor=#EBF8FF;arcSize=32;absoluteArcSize=1;imageWidth=64;imageHeight=64;strokeWidth=1.5;" vertex="1" parent="1">
          <mxGeometry x="20" y="280" width="800" height="680" as="geometry" />
        </mxCell>
        <mxCell id="6z_-niMH7R3TJKptT-WV-2" value="" style="rounded=1;whiteSpace=wrap;html=1;strokeColor=#0070F2;strokeWidth=1.5;arcSize=16;fillColor=#FFFFFF;perimeterSpacing=0;absoluteArcSize=1;" vertex="1" parent="1">
          <mxGeometry x="30" y="340" width="780" height="600" as="geometry" />
        </mxCell>
        <mxCell id="6z_-niMH7R3TJKptT-WV-3" value="&lt;font color=&quot;#1a2733&quot; face=&quot;arial&quot; style=&quot;font-size: 16px;&quot;&gt;&lt;b style=&quot;font-size: 16px;&quot;&gt;S4HANA&lt;/b&gt;&lt;/font&gt;" style="text;html=1;align=center;verticalAlign=middle;resizable=0;points=[];autosize=1;strokeColor=none;fillColor=none;fontSize=12;fontColor=default;fontFamily=Helvetica;strokeWidth=1.5;" vertex="1" parent="1">
          <mxGeometry x="80" y="300.5" width="90" height="30" as="geometry" />
        </mxCell>
        <mxCell id="6z_-niMH7R3TJKptT-WV-4" value="" style="image;sketch=0;aspect=fixed;html=1;points=[];align=center;fontSize=12;image=img/lib/mscae/SAP_HANA_on_Azure.svg;" vertex="1" parent="1">
          <mxGeometry x="40" y="301.5" width="50" height="25" as="geometry" />
        </mxCell>
        <mxCell id="6z_-niMH7R3TJKptT-WV-64" style="edgeStyle=orthogonalEdgeStyle;rounded=0;orthogonalLoop=1;jettySize=auto;html=1;entryX=0;entryY=0.5;entryDx=0;entryDy=0;" edge="1" parent="1" source="6z_-niMH7R3TJKptT-WV-12" target="6z_-niMH7R3TJKptT-WV-56">
          <mxGeometry relative="1" as="geometry" />
        </mxCell>
        <mxCell id="6z_-niMH7R3TJKptT-WV-12" value="Função: Y_S4_OMM_CXS_CONTRATADAS" style="rounded=1;whiteSpace=wrap;html=1;" vertex="1" parent="1">
          <mxGeometry x="70" y="370" width="220" height="60" as="geometry" />
        </mxCell>
        <mxCell id="6z_-niMH7R3TJKptT-WV-58" style="edgeStyle=orthogonalEdgeStyle;rounded=0;orthogonalLoop=1;jettySize=auto;html=1;entryX=0.5;entryY=1;entryDx=0;entryDy=0;" edge="1" parent="1" source="6z_-niMH7R3TJKptT-WV-16" target="6z_-niMH7R3TJKptT-WV-56">
          <mxGeometry relative="1" as="geometry" />
        </mxCell>
        <mxCell id="6z_-niMH7R3TJKptT-WV-16" value="&lt;span style=&quot;text-wrap: nowrap; color: rgb(29, 45, 62); font-family: arial; font-size: 14px; text-align: left;&quot;&gt;Tabelas&lt;br&gt;YMMFI_EXTR_CR&lt;/span&gt;&lt;div&gt;&lt;span style=&quot;text-wrap: nowrap; color: rgb(29, 45, 62); font-family: arial; font-size: 14px; text-align: left;&quot;&gt;YMMFI_EXTR_DB&lt;/span&gt;&lt;/div&gt;" style="rounded=1;whiteSpace=wrap;html=1;" vertex="1" parent="1">
          <mxGeometry x="670" y="760" width="123" height="58" as="geometry" />
        </mxCell>
        <mxCell id="6z_-niMH7R3TJKptT-WV-19" value="" style="aspect=fixed;sketch=0;html=1;dashed=0;whitespace=wrap;verticalLabelPosition=bottom;verticalAlign=top;fillColor=#2875E2;strokeColor=#ffffff;points=[[0.005,0.63,0],[0.1,0.2,0],[0.9,0.2,0],[0.5,0,0],[0.995,0.63,0],[0.72,0.99,0],[0.5,1,0],[0.28,0.99,0]];shape=mxgraph.kubernetes.icon2;kubernetesLabel=1;prIcon=job" vertex="1" parent="1">
          <mxGeometry x="480" y="731" width="50" height="48" as="geometry" />
        </mxCell>
        <mxCell id="6z_-niMH7R3TJKptT-WV-49" style="edgeStyle=orthogonalEdgeStyle;rounded=0;orthogonalLoop=1;jettySize=auto;html=1;" edge="1" parent="1" source="6z_-niMH7R3TJKptT-WV-30" target="6z_-niMH7R3TJKptT-WV-40">
          <mxGeometry relative="1" as="geometry" />
        </mxCell>
        <mxCell id="6z_-niMH7R3TJKptT-WV-50" style="edgeStyle=orthogonalEdgeStyle;rounded=0;orthogonalLoop=1;jettySize=auto;html=1;" edge="1" parent="1" source="6z_-niMH7R3TJKptT-WV-30" target="6z_-niMH7R3TJKptT-WV-39">
          <mxGeometry relative="1" as="geometry" />
        </mxCell>
        <mxCell id="6z_-niMH7R3TJKptT-WV-52" style="edgeStyle=orthogonalEdgeStyle;rounded=0;orthogonalLoop=1;jettySize=auto;html=1;" edge="1" parent="1" source="6z_-niMH7R3TJKptT-WV-30" target="6z_-niMH7R3TJKptT-WV-16">
          <mxGeometry relative="1" as="geometry" />
        </mxCell>
        <mxCell id="6z_-niMH7R3TJKptT-WV-30" value="&lt;div style=&quot;&quot;&gt;&lt;span style=&quot;text-align: left; text-wrap-style: initial;&quot;&gt;&lt;font style=&quot;&quot;&gt;&lt;font face=&quot;arial&quot; color=&quot;#1d2d3e&quot;&gt;&lt;span style=&quot;font-size: 14px; text-wrap-mode: nowrap;&quot;&gt;Report&lt;/span&gt;&lt;/font&gt;&lt;br&gt;&lt;font face=&quot;arial&quot; color=&quot;#1d2d3e&quot;&gt;&lt;span style=&quot;font-size: 14px; text-wrap-mode: nowrap;&quot;&gt;YS4_MMFI_CARGA_VISOES&lt;/span&gt;&lt;/font&gt;&lt;/font&gt;&lt;/span&gt;&lt;/div&gt;" style="rounded=1;whiteSpace=wrap;html=1;" vertex="1" parent="1">
          <mxGeometry x="400" y="830" width="210" height="50" as="geometry" />
        </mxCell>
        <mxCell id="6z_-niMH7R3TJKptT-WV-33" value="" style="rounded=1;whiteSpace=wrap;html=1;strokeColor=#0070F2;fillColor=#EBF8FF;arcSize=32;absoluteArcSize=1;imageWidth=64;imageHeight=64;strokeWidth=1.5;" vertex="1" parent="1">
          <mxGeometry x="320" y="30" width="290" height="150" as="geometry" />
        </mxCell>
        <mxCell id="6z_-niMH7R3TJKptT-WV-34" value="" style="shape=image;verticalLabelPosition=bottom;labelBackgroundColor=default;verticalAlign=top;aspect=fixed;imageAspect=0;image=data:image/svg+xml,PHN2ZyB4bWxuczp4bGluaz0iaHR0cDovL3d3dy53My5vcmcvMTk5OS94bGluayIgeG1sbnM9Imh0dHA6Ly93d3cudzMub3JnLzIwMDAvc3ZnIiB2aWV3Qm94PSIwIDAgMTQ0Ljc0NyAzOS44MzIiIGlkPSJhIj48ZGVmcz48bGluZWFyR3JhZGllbnQgZ3JhZGllbnRVbml0cz0idXNlclNwYWNlT25Vc2UiIHkyPSIzOS44MzIiIHgyPSI0MC4yNTgiIHkxPSIwIiB4MT0iNDAuMjU4IiBpZD0iYiI+PHN0b3Agc3RvcC1jb2xvcj0iIzAwYjhmMSIgb2Zmc2V0PSIwIi8+PHN0b3Agc3RvcC1jb2xvcj0iIzAwYjVlZiIgb2Zmc2V0PSIuMDE2Ii8+PHN0b3Agc3RvcC1jb2xvcj0iIzBkOTBkOCIgb2Zmc2V0PSIuMzA4Ii8+PHN0b3Agc3RvcC1jb2xvcj0iIzE2NzVjOCIgb2Zmc2V0PSIuNTc4Ii8+PHN0b3Agc3RvcC1jb2xvcj0iIzFjNjRiZSIgb2Zmc2V0PSIuODE3Ii8+PHN0b3Agc3RvcC1jb2xvcj0iIzFlNWZiYiIgb2Zmc2V0PSIxIi8+PC9saW5lYXJHcmFkaWVudD48L2RlZnM+PHBvbHlsaW5lIGZpbGwtcnVsZT0iZXZlbm9kZCIgZmlsbD0idXJsKCNiKSIgcG9pbnRzPSIwIDM5LjgzMiA0MC42OTIgMzkuODMyIDgwLjUxNyAwIDAgMCAwIDM5LjgzMiIvPjxwYXRoIGZpbGwtcnVsZT0iZXZlbm9kZCIgZmlsbD0iI2ZmZiIgZD0ibTQ3Ljc4Miw3LjQ4OWwtNy45MjUtLjAwNXYxOC44NDVsLTYuOTI0LTE4Ljg0NWgtNi44NjVsLTUuOTEyLDE1Ljc1OWMtLjYzLTMuOTczLTQuNzQtNS4zNDUtNy45NzQtNi4zNzQtMi4xMzUtLjY4Ni00LjQwMS0xLjY5NC00LjM4LTIuODA5LjAxNy0uOTE1LDEuMjE1LTEuNzY1LDMuNTg5LTEuNjM3LDEuNTk1LjA4NCwzLjAwMS4yMTMsNS44LDEuNTYzbDIuNzUzLTQuNzk1Yy0yLjU1NS0xLjMtNi4wODYtMi4xMjEtOC45NzgtMi4xMjRoLS4wMTdjLTMuMzc0LDAtNi4xODUsMS4wOTMtNy45MjgsMi44OTQtMS4yMTQsMS4yNTgtMS44NjksMi44NTYtMS44OTYsNC42MjMtLjA0NCwyLjQzMi44NDgsNC4xNTcsMi43MjEsNS41MzMsMS41ODMsMS4xNiwzLjYwNiwxLjkxMiw1LjM5LDIuNDY1LDIuMjAxLjY4MSwzLjk5NiwxLjI3NCwzLjk3NSwyLjUzOS0uMDE2LjQ1OS0uMTkxLjg4OC0uNTIxLDEuMjM2LS41NDguNTY2LTEuMzkxLjc3OS0yLjU1NS43OTktMi4yNDQuMDQ4LTMuOTEtLjMwMy02LjU2Mi0xLjg3bC0yLjQ0OCw0Ljg2MWMyLjY0NCwxLjUwNiw1Ljc3NiwyLjM4OCw4Ljk3MiwyLjM4OGwuNDExLS4wMDZjMi43ODItLjA1LDUuMDI2LS44NDIsNi44Mi0yLjI4Ni4xMDMtLjA4MS4xOTYtLjE2Ni4yOTEtLjI1bC0uNzk1LDIuMTIzaDcuMmwxLjIwOC0zLjY3NGMxLjI2NS40MzMsMi43MDQuNjcxLDQuMjMyLjY3MSwxLjQ4NywwLDIuODg5LS4yMjksNC4xMzEtLjYzNWwxLjE2NCwzLjYzN2gxMS43NDJ2LTcuNjA3aDIuNTYxYzYuMTg4LDAsOS44NTEtMy4xNTQsOS44NTEtOC40MzYsMC01Ljg4NS0zLjU1Ny04LjU4NS0xMS4xMzItOC41ODVabS0xOC4zMTcsMTYuMTI0Yy0uOTI1LDAtMS43OTItLjE2LTIuNTM5LS40NDNsMi41MTItNy45MjZoLjA0OGwyLjQ2OCw3Ljk0OGMtLjc0Mi4yNjMtMS41ODkuNDIxLTIuNDg4LjQyMVptMTguNzgzLTQuNTUzaC0xLjc0NnYtNi4zODZoMS43NDZjMi4zMjgsMCw0LjE4NS43NzMsNC4xODUsMy4xNTEsMCwyLjQ2MS0xLjg1NywzLjIzNi00LjE4NSwzLjIzNiIvPjxwYXRoIGZpbGw9IiMwMDJhODYiIGQ9Im04MC4yMTcsNy40MDFoMTAuMDYzYzUuNTk1LDAsOC42NzQsMS45MTcsOC42NzQsNi4xNTgsMCwyLjkwMy0xLjUxMyw1LjAxNC00LjMxMSw1LjcsMy4yOS40NTgsNS4yNzgsMi41ODYsNS4yNzgsNS44OTQsMCw1LjAxNC00LjA2NCw3LjAzNy05LjE4NCw3LjAzN2gtMTAuNTIxVjcuNDAxWm0xMy45NjksNi44MjZjMC0yLjE2NC0xLjQ5Ni0yLjk3My00LjI0LTIuOTczaC01LjA0OXY2LjI5OGg0Ljg5MWMzLjIwMiwwLDQuMzk4LTEuMTYxLDQuMzk4LTMuMzI1Wm0xLjAyMSwxMC41MjFjMC0yLjM1Ny0xLjc3Ny0zLjQ2Ni00LjgzOS0zLjQ2NmgtNS40NzF2Ny4wNTVoNS41MDZjMi44MTUsMCw0LjgwNC0uNzc0LDQuODA0LTMuNTg5WiIvPjxwYXRoIGZpbGw9IiMwMDJhODYiIGQ9Im0xMDkuMDUxLDExLjVoLTcuNTgzdi00LjA5OWgxOS44NDZ2NC4wOTloLTcuNTY1djIwLjY5aC00LjY5N1YxMS41WiIvPjxwYXRoIGZpbGw9IiMwMDJhODYiIGQ9Im0xMjUuMTQ4LDcuNDAxaDEwLjUwNGM2LjE5MiwwLDkuMDk2LDMuMTg1LDkuMDk2LDcuODk5LDAsNC4zOTgtMi44MzMsOC4xNDYtOC44NSw4LjE0NmgtNi4wN3Y4Ljc0NGgtNC42OFY3LjQwMVptMTQuOTAyLDcuOTUyYzAtMi41NTEtMS42ODktMy45MjMtNC45NDQtMy45MjNoLTUuMjc4djguMDRoNS40MTljMy4yNzIsMCw0LjgwNC0xLjU4Myw0LjgwNC00LjExN1oiLz48L3N2Zz4=;strokeWidth=1.5;" vertex="1" parent="1">
          <mxGeometry x="332.75" y="40.00000000000006" width="67.25" height="18.55" as="geometry" />
        </mxCell>
        <mxCell id="6z_-niMH7R3TJKptT-WV-32" value="" style="shape=mxgraph.sap.icon;labelPosition=center;verticalLabelPosition=bottom;align=center;verticalAlign=top;strokeWidth=1;strokeColor=#D5DADD;fillColor=#EDEFF0;gradientColor=#FCFCFC;gradientDirection=west;aspect=fixed;SAPIcon=SAP_HANA_Cloud" vertex="1" parent="1">
          <mxGeometry x="380" y="70" width="50" height="50" as="geometry" />
        </mxCell>
        <mxCell id="6z_-niMH7R3TJKptT-WV-35" value="&lt;font size=&quot;1&quot; face=&quot;arial&quot; style=&quot;&quot;&gt;&lt;b style=&quot;font-size: 12px;&quot;&gt;HANA Cloud&lt;/b&gt;&lt;/font&gt;" style="text;html=1;align=center;verticalAlign=middle;resizable=0;points=[];autosize=1;strokeColor=none;fillColor=none;fontSize=12;fontColor=#1D2D3E;fontFamily=Helvetica;" vertex="1" parent="1">
          <mxGeometry x="355" y="120.00000000000003" width="100" height="30" as="geometry" />
        </mxCell>
        <mxCell id="6z_-niMH7R3TJKptT-WV-63" style="edgeStyle=orthogonalEdgeStyle;rounded=0;orthogonalLoop=1;jettySize=auto;html=1;entryX=0;entryY=0.5;entryDx=0;entryDy=0;" edge="1" parent="1" source="6z_-niMH7R3TJKptT-WV-36" target="6z_-niMH7R3TJKptT-WV-56">
          <mxGeometry relative="1" as="geometry" />
        </mxCell>
        <mxCell id="6z_-niMH7R3TJKptT-WV-36" value="Função:&amp;nbsp;&lt;div&gt;Y_S4_OMM_SOCIOS&lt;/div&gt;" style="rounded=1;whiteSpace=wrap;html=1;" vertex="1" parent="1">
          <mxGeometry x="70" y="440" width="220" height="60" as="geometry" />
        </mxCell>
        <mxCell id="6z_-niMH7R3TJKptT-WV-62" style="edgeStyle=orthogonalEdgeStyle;rounded=0;orthogonalLoop=1;jettySize=auto;html=1;entryX=0;entryY=0.5;entryDx=0;entryDy=0;" edge="1" parent="1" source="6z_-niMH7R3TJKptT-WV-37" target="6z_-niMH7R3TJKptT-WV-56">
          <mxGeometry relative="1" as="geometry" />
        </mxCell>
        <mxCell id="6z_-niMH7R3TJKptT-WV-37" value="Função:&amp;nbsp;&lt;div&gt;Y_S4_OMM_CONTR_TRANSF&lt;/div&gt;" style="rounded=1;whiteSpace=wrap;html=1;" vertex="1" parent="1">
          <mxGeometry x="70" y="510" width="220" height="60" as="geometry" />
        </mxCell>
        <mxCell id="6z_-niMH7R3TJKptT-WV-61" style="edgeStyle=orthogonalEdgeStyle;rounded=0;orthogonalLoop=1;jettySize=auto;html=1;entryX=0;entryY=0.5;entryDx=0;entryDy=0;" edge="1" parent="1" source="6z_-niMH7R3TJKptT-WV-38" target="6z_-niMH7R3TJKptT-WV-56">
          <mxGeometry relative="1" as="geometry" />
        </mxCell>
        <mxCell id="6z_-niMH7R3TJKptT-WV-38" value="Função:&amp;nbsp;&lt;div&gt;Y_S4_OMM_EVENT_PARC&lt;/div&gt;" style="rounded=1;whiteSpace=wrap;html=1;" vertex="1" parent="1">
          <mxGeometry x="70" y="580" width="220" height="60" as="geometry" />
        </mxCell>
        <mxCell id="6z_-niMH7R3TJKptT-WV-39" value="Função:&lt;div&gt;&amp;nbsp;Y_S4_OMM_EXTR_DEB&lt;/div&gt;" style="rounded=1;whiteSpace=wrap;html=1;" vertex="1" parent="1">
          <mxGeometry x="70" y="860" width="220" height="60" as="geometry" />
        </mxCell>
        <mxCell id="6z_-niMH7R3TJKptT-WV-51" style="edgeStyle=orthogonalEdgeStyle;rounded=0;orthogonalLoop=1;jettySize=auto;html=1;entryX=0;entryY=0.5;entryDx=0;entryDy=0;" edge="1" parent="1" source="6z_-niMH7R3TJKptT-WV-40" target="6z_-niMH7R3TJKptT-WV-30">
          <mxGeometry relative="1" as="geometry" />
        </mxCell>
        <mxCell id="6z_-niMH7R3TJKptT-WV-40" value="Função:&lt;div&gt;&amp;nbsp;Y_S4_OMM_EXTR_CRED&lt;/div&gt;" style="rounded=1;whiteSpace=wrap;html=1;" vertex="1" parent="1">
          <mxGeometry x="70" y="790" width="220" height="60" as="geometry" />
        </mxCell>
        <mxCell id="6z_-niMH7R3TJKptT-WV-59" style="edgeStyle=orthogonalEdgeStyle;rounded=0;orthogonalLoop=1;jettySize=auto;html=1;entryX=0;entryY=0.5;entryDx=0;entryDy=0;" edge="1" parent="1" source="6z_-niMH7R3TJKptT-WV-41" target="6z_-niMH7R3TJKptT-WV-56">
          <mxGeometry relative="1" as="geometry" />
        </mxCell>
        <mxCell id="6z_-niMH7R3TJKptT-WV-41" value="Função:&lt;div&gt;&amp;nbsp;Y_S4_OMM_COTAS&lt;/div&gt;" style="rounded=1;whiteSpace=wrap;html=1;" vertex="1" parent="1">
          <mxGeometry x="70" y="720" width="220" height="60" as="geometry" />
        </mxCell>
        <mxCell id="6z_-niMH7R3TJKptT-WV-60" style="edgeStyle=orthogonalEdgeStyle;rounded=0;orthogonalLoop=1;jettySize=auto;html=1;entryX=0;entryY=0.5;entryDx=0;entryDy=0;" edge="1" parent="1" source="6z_-niMH7R3TJKptT-WV-42" target="6z_-niMH7R3TJKptT-WV-56">
          <mxGeometry relative="1" as="geometry" />
        </mxCell>
        <mxCell id="6z_-niMH7R3TJKptT-WV-42" value="Função: Y_S4_OMM_EVENT_CONTR_ENTREG" style="rounded=1;whiteSpace=wrap;html=1;" vertex="1" parent="1">
          <mxGeometry x="70" y="650" width="220" height="60" as="geometry" />
        </mxCell>
        <mxCell id="6z_-niMH7R3TJKptT-WV-48" style="edgeStyle=orthogonalEdgeStyle;rounded=0;orthogonalLoop=1;jettySize=auto;html=1;" edge="1" parent="1" source="6z_-niMH7R3TJKptT-WV-43" target="6z_-niMH7R3TJKptT-WV-30">
          <mxGeometry relative="1" as="geometry" />
        </mxCell>
        <mxCell id="6z_-niMH7R3TJKptT-WV-43" value="&lt;font face=&quot;arial&quot;&gt;&lt;b&gt;FLUXO_CAIXAS_PGMP_DIARIO&lt;/b&gt;&lt;/font&gt;" style="text;html=1;align=center;verticalAlign=middle;resizable=0;points=[];autosize=1;strokeColor=none;fillColor=none;fontSize=12;fontColor=#1D2D3E;fontFamily=Helvetica;" vertex="1" parent="1">
          <mxGeometry x="400" y="779" width="210" height="30" as="geometry" />
        </mxCell>
        <mxCell id="6z_-niMH7R3TJKptT-WV-56" value="" style="rounded=1;whiteSpace=wrap;html=1;strokeColor=#0070F2;strokeWidth=1.5;arcSize=16;fillColor=#FFFFFF;perimeterSpacing=0;absoluteArcSize=1;" vertex="1" parent="1">
          <mxGeometry x="515" y="355" width="250" height="255" as="geometry" />
        </mxCell>
        <mxCell id="6z_-niMH7R3TJKptT-WV-53" value="&lt;div&gt;Classe&lt;/div&gt;&lt;div&gt;&amp;nbsp;ZCL_ZGW_MMFI_FLUXO_CX_DPC_EXT&lt;/div&gt;&lt;div&gt;&lt;br&gt;&lt;/div&gt;&lt;div&gt;&lt;span style=&quot;background-color: initial;&quot;&gt;Métodos/entidades:&amp;nbsp;&lt;/span&gt;&lt;/div&gt;&lt;div&gt;&lt;span style=&quot;background-color: initial;&quot;&gt;CXSCONTRSET_GET_ENTITYSET&lt;/span&gt;&lt;/div&gt;&lt;div&gt;&lt;span style=&quot;background-color: initial;&quot;&gt;SOCIOSSET_GET_ENTITYSET&lt;/span&gt;&lt;/div&gt;&lt;div&gt;&lt;span style=&quot;background-color: initial;&quot;&gt;CONTRTRANSFSET_GET_ENTITYSET&lt;/span&gt;&lt;/div&gt;&lt;div&gt;&lt;span style=&quot;background-color: initial;&quot;&gt;EVTPARCSET_GET_ENTITYSET&lt;/span&gt;&lt;/div&gt;&lt;div&gt;&lt;span style=&quot;background-color: initial;&quot;&gt;EVTCONTRENTRSET_GET_ENTITYSET&lt;/span&gt;&lt;/div&gt;&lt;div&gt;&lt;span style=&quot;background-color: initial;&quot;&gt;COTASSET_GET_ENTITYSET&lt;/span&gt;&lt;/div&gt;&lt;div&gt;&lt;span style=&quot;background-color: initial;&quot;&gt;&lt;div&gt;EXTRCREDSET_GET_ENTITYSET&lt;/div&gt;&lt;div&gt;EXTRDEBSET_GET_ENTITYSET&lt;/div&gt;&lt;/span&gt;&lt;/div&gt;" style="rounded=1;whiteSpace=wrap;html=1;" vertex="1" parent="1">
          <mxGeometry x="526" y="400" width="230" height="190" as="geometry" />
        </mxCell>
        <mxCell id="6z_-niMH7R3TJKptT-WV-67" style="edgeStyle=orthogonalEdgeStyle;rounded=0;orthogonalLoop=1;jettySize=auto;html=1;" edge="1" parent="1" source="6z_-niMH7R3TJKptT-WV-55" target="6z_-niMH7R3TJKptT-WV-65">
          <mxGeometry relative="1" as="geometry" />
        </mxCell>
        <mxCell id="6z_-niMH7R3TJKptT-WV-55" value="&lt;font face=&quot;arial&quot;&gt;&lt;b&gt;Gateway&lt;/b&gt;&lt;/font&gt;&lt;div&gt;&lt;font face=&quot;arial&quot;&gt;&lt;b&gt;ZGW_MMFI_FLUXO_CAIXA&lt;/b&gt;&lt;/font&gt;&lt;/div&gt;" style="text;html=1;align=center;verticalAlign=middle;resizable=0;points=[];autosize=1;strokeColor=none;fillColor=none;fontSize=12;fontColor=#1D2D3E;fontFamily=Helvetica;" vertex="1" parent="1">
          <mxGeometry x="545" y="355" width="180" height="40" as="geometry" />
        </mxCell>
        <mxCell id="6z_-niMH7R3TJKptT-WV-75" style="edgeStyle=orthogonalEdgeStyle;rounded=0;orthogonalLoop=1;jettySize=auto;html=1;" edge="1" parent="1" source="6z_-niMH7R3TJKptT-WV-65" target="6z_-niMH7R3TJKptT-WV-13">
          <mxGeometry relative="1" as="geometry" />
        </mxCell>
        <mxCell id="6z_-niMH7R3TJKptT-WV-65" value="OData service: ZGW_MMFI_FLUXO_CAIXA_SRV" style="rounded=1;whiteSpace=wrap;html=1;" vertex="1" parent="1">
          <mxGeometry x="525" y="246.5" width="220" height="80" as="geometry" />
        </mxCell>
        <mxCell id="6z_-niMH7R3TJKptT-WV-70" style="edgeStyle=orthogonalEdgeStyle;rounded=0;orthogonalLoop=1;jettySize=auto;html=1;entryX=0.5;entryY=0;entryDx=0;entryDy=0;" edge="1" parent="1" source="6z_-niMH7R3TJKptT-WV-13" target="6z_-niMH7R3TJKptT-WV-65">
          <mxGeometry relative="1" as="geometry" />
        </mxCell>
        <mxCell id="6z_-niMH7R3TJKptT-WV-13" value="&lt;font size=&quot;1&quot; face=&quot;arial&quot; style=&quot;&quot;&gt;&lt;b style=&quot;font-size: 12px;&quot;&gt;Jobs CAP&lt;/b&gt;&lt;/font&gt;" style="text;html=1;align=center;verticalAlign=middle;resizable=0;points=[];autosize=1;strokeColor=none;fillColor=none;fontSize=12;fontColor=#1D2D3E;fontFamily=Helvetica;" vertex="1" parent="1">
          <mxGeometry x="500" y="110.00000000000003" width="80" height="30" as="geometry" />
        </mxCell>
        <mxCell id="6z_-niMH7R3TJKptT-WV-17" value="" style="aspect=fixed;sketch=0;html=1;dashed=0;whitespace=wrap;verticalLabelPosition=bottom;verticalAlign=top;fillColor=#2875E2;strokeColor=#ffffff;points=[[0.005,0.63,0],[0.1,0.2,0],[0.9,0.2,0],[0.5,0,0],[0.995,0.63,0],[0.72,0.99,0],[0.5,1,0],[0.28,0.99,0]];shape=mxgraph.kubernetes.icon2;kubernetesLabel=1;prIcon=job" vertex="1" parent="1">
          <mxGeometry x="520" y="74.99999999999994" width="40" height="38.4" as="geometry" />
        </mxCell>
        <mxCell id="6z_-niMH7R3TJKptT-WV-74" style="edgeStyle=orthogonalEdgeStyle;rounded=0;orthogonalLoop=1;jettySize=auto;html=1;entryX=1;entryY=0.5;entryDx=0;entryDy=0;entryPerimeter=0;" edge="1" parent="1" source="6z_-niMH7R3TJKptT-WV-17" target="6z_-niMH7R3TJKptT-WV-32">
          <mxGeometry relative="1" as="geometry" />
        </mxCell>
      </root>
    </mxGraphModel>
  </diagram>
</mxfile>
